<?xml version="1.0" encoding="UTF-8"?>
<svg id="Ebene_1" xmlns="http://www.w3.org/2000/svg" viewBox="0 0 829.96 305.65">
  <path d="M824.56,211.97c-11.19,23.2-28.25,39.49-55.51,41.74-15.97,1.32-27.97-5.78-35.15-19.5-5.83-11.14-10.17-23.05-15.5-35.73-.44-1.05-1.82-1.31-2.61-.5-7.58,7.83-15.02,15.98-23.09,23.47-16.3,15.15-35.29,25.52-57.67,28.08-7.25.83-15.14.13-22.15-1.89-11.12-3.21-16.46-11.91-18.65-22.74-.24-1.21-1.69-1.7-2.61-.89-5.85,5.17-11.14,10.3-17.08,14.52-13.57,9.67-28.7,14.36-45.62,12.06-15.63-2.12-24.36-12.05-30.78-25.98-1.2-2.61-2.74-7.05-3.33-9.86-.16-.75-1.18-.89-1.5-.18-1.17,2.54-2.87,5.34-4.73,7.33-11.16,11.89-24.1,21.37-39.49,27.21-32.29,12.25-51.4,1.66-55.7-31.2-.16-1.24-1.64-1.82-2.59-1-8.13,6.99-15.89,14.07-24.23,20.4-17.11,13-36.61,20.47-58.07,22.24-40.88,3.36-64.07-19.65-59.1-60.19,4.46-36.39,22.64-64.95,56-81.6,11.03-5.51,24.4-9.05,36.65-8.93,31.16.29,46.97,21.62,35.93,51.2-3.6,9.64-11.17,18.66-18.97,25.71-14.84,13.42-33.59,19.25-53.25,22.16-4.23.63-8.42,1.53-12.58,2.33-.85.17-1.4.98-1.25,1.84,2.42,14.12,12.63,21.15,27.85,19.56,19.12-2,34.74-11.54,48.84-23.7,20.21-17.43,36.28-37.71,43-64.24,1.74-6.89,4.33-13.57,6.93-21.24.35-1.03-.42-2.09-1.5-2.1-4.44-.05-8.21-.19-11.95.07-6.8.48-12.09-1.02-13.11-8.78-.94-7.1,5.25-15.63,12.25-16.36,5.21-.54,10.53-.47,15.76-.09,5.38.39,8.13-1.8,10.07-6.71,2.87-7.28,6.02-14.54,9.91-21.32,5.86-10.22,18.09-14.01,28.21-9.5,7.08,3.15,9.39,7.78,7.02,15.31-1.92,6.11-4.27,12.08-6.71,18.7-.37,1,.34,2.08,1.4,2.16,6.92.49,13.6.97,20.28,1.44,5.17.37,10.82,1.76,10.75,7.52-.05,4.1-2.81,10.3-6.08,11.76-6.17,2.76-13.56,3.63-20.48,3.79-16.37.37-16.88-.14-21.61,15.47-6.39,21.06-12.29,42.29-17.59,63.64-1.81,7.31-4.27,16.4,3.45,21.84,7.76,5.47,16.9,2.21,23.02-2.94,11.64-9.79,22-21.13,32.53-32.17,1.8-1.89,2.19-5.46,2.55-8.33,6.11-48.41,21.21-93.86,45.56-136.15,8.32-14.44,18.8-27.45,34.69-34.1,7.01-2.94,15.22-5.03,22.68-4.49,12.83.92,21.53,12.02,22.35,25.56,1.45,23.93-6.32,45.66-16.69,66.6-15.98,32.26-37.5,60.32-65.28,83.5-8.05,6.72-8.81,30.96-.96,37.95,2.3,2.05,6.06,3.54,9.1,3.45,5.13-.14,10.77-.67,15.24-2.9,18.98-9.48,33.74-22.5,40.28-44.11,5.72-18.89,13.84-37.1,21.41-55.4,5.19-12.55,24.81-15.11,33.71-4.82,4.3,4.97,3.2,10.2,1.21,15.76-6.17,17.23-12.65,34.37-17.95,51.87-3,9.93-4.67,20.41-5.57,30.77-.81,9.36,3.41,12.54,12.45,9.81,6.35-1.92,13.11-4.57,17.99-8.82,14.38-12.53,28.1-25.85,41.6-39.34,2.06-2.06,2.72-6.88,2.08-10.02-2.68-13.17-5.93-26.24-9.3-39.26-3.2-12.42-1.44-16.14,10.5-20.36,14.1-4.98,20.11-3.26,24.47,8.68,4.13,11.29,7.23,22.95,10.77,34.77.35,1.18,1.88,1.52,2.7.6,10.86-12.06,21.33-23.96,32.22-35.47,3.8-4.01,8.55-7.33,13.35-10.14,4.96-2.9,10.12-2.35,14.37,2.12,4.34,4.57,4.32,9.75.7,14.27-7.47,9.34-15.21,18.51-23.37,27.26-9.2,9.86-18.74,19.44-28.62,28.63-4.26,3.96-5.29,7.75-3.18,12.82,2.86,6.87,4.87,14.25,8.71,20.51,7.58,12.36,19.18,15.86,31.93,8.86,8.72-4.78,16.78-11.18,24.03-18.14,2.79-2.67,5.2-5.05,7.36-7.27,1.05-1.07,2.86-.23,2.71,1.26-.74,7.38-2.22,15.29-5.39,21.86ZM543,139.73h0c2.42,1.47,5.54,1.01,7.44-1.09,22.73-25.22,39.45-53.82,47.2-87.27,1.46-6.31,4.88-15.03-2.2-18.35-7.96-3.74-13.02,4.85-16.06,10.61-8.66,16.41-16.95,33.13-23.74,50.37-5.49,13.94-9.42,28.49-13.72,42.9-.33,1.09.12,2.26,1.09,2.85ZM335.53,131.62c-.42,0-4,0-8,2-3.63,1.82-6.83,3.95-11.84,8.48-11.63,10.51-17.03,25.02-23.07,39.01-1.99,4.61,1.07,7.43,4.33,6.45,17.84-5.42,36.12-10.75,46.84-27.84,2.63-4.19,4.12-9.66,4.41-14.64.48-8.34-.77-13.36-12.67-13.47Z" style="fill: #fff;"/>
  <path d="M187.01,135.99c-2.09,1.03-2.02,4.04.11,4.96.56.24,1.11.46,1.66.66,2.11.74,4.4.98,6.51,1.73,34.03,12.17,47.48,40.1,35.71,74.28-9,26.13-27.49,44.28-50.66,57.96-35.35,20.87-73.49,31.92-114.88,29.82-15.67-.8-30.47-4.68-42.4-15.67-7.04-6.49-10.76-14.48-8.54-24.18,1.95-8.55,9.04-12.32,16.07-7.81,37.75,24.24,75.07,14.41,111.47-2.3,12.58-5.78,24.99-14.36,34.48-24.81s13.9-23.7,13.26-38.29c-.66-15.06-7.82-25.46-21.83-30.95-20.01-7.84-40.49-6.46-60.91-2.02-2.3.5-5.1,3.38-5.83,5.73-7.64,24.6-14.85,49.33-22.32,73.98-1.89,6.23.16,15.34-10.71,15.55-11.3.22-22.13-6.84-23.75-16.79-1-6.15-.88-12.77.21-18.92,1.75-9.9,4.1-19.79,7.26-29.34,13.36-40.43,27.52-80.61,40.53-121.16,5.29-16.5,27.45-23.61,40.5-20.81,6.11,1.31,7.19,5.2,4.29,13.54-6.74,19.41-13.55,38.79-20.33,58.18-.72,2.05-1.42,4.1-2.13,6.17-.59,1.72.62,3.55,2.44,3.62,30.36,1.25,68.14-22.06,77.36-49.26,2.54-7.5,3.06-16.25,2.24-24.19-1.1-10.63-10.01-15.09-19.25-18.14-20.06-6.61-40.16-4.18-60.01.66-22.5,5.49-43.24,15.09-61.05,30.04-13.16,11.04-24.63,23.08-22.3,42.64.82,6.87-5.44,7.09-10.44,6.64-18.5-1.67-29.39-19.78-20.75-37.33,5.3-10.78,13.11-21.13,22.06-29.19C55.48,23.62,92.51,9.53,132.33,2.53c23.48-4.13,46.8-3.47,69.92,4.06,48.97,15.95,55.31,65.72,27.09,98.93-10.62,12.5-24.19,21.17-38.62,28.62-1.2.62-2.4,1.22-3.71,1.86Z" style="fill: #fff;"/>
  <path d="M660.97,84c-12.57.22-20.82-8.11-20.85-21.04-.04-15.07,12.75-28.52,27.17-28.59,11.42-.05,20.92,9.55,21.32,21.56.48,14.61-12.51,27.81-27.63,28.07Z" style="fill: #fff;"/>
</svg>